<svg xmlns="http://www.w3.org/2000/svg" xmlns:xlink="http://www.w3.org/1999/xlink" id="Camada_1" data-name="Camada 1" viewBox="0 0 192.54 36"><defs><style>      .cls-1 {        fill: #02050c;      }      .cls-2 {        fill: url(#Gradiente_sem_nome_8);      }    </style><linearGradient id="Gradiente_sem_nome_8" data-name="Gradiente sem nome 8" x1="111.99" y1="20.5" x2="91.99" y2="20.5" gradientTransform="translate(0 38) scale(1 -1)" gradientUnits="userSpaceOnUse"><stop offset="0" stop-color="#e73728"></stop><stop offset="1" stop-color="#5f1207"></stop></linearGradient></defs><path class="cls-1" d="M7.29,0s.07,0,.1,0c31.7,0,155.78,0,185.14,0-52.05.02-59.05,36-90.55,36S64,.04,7.4,0c-9.08,0-10.58,0-.1,0Z"></path><path class="cls-2" d="M101,22.6l-8.6-8.3c-.55-.53-.55-1.38,0-1.91.55-.53,1.43-.53,1.98,0l7.61,7.34,7.61-7.34c.55-.53,1.43-.53,1.98,0,.55.53.55,1.38,0,1.91l-8.6,8.3c-.27.26-.63.4-.99.4s-.72-.13-.99-.4Z"></path></svg>